<svg width="90" height="84" viewBox="0 0 90 84" fill="none" xmlns="http://www.w3.org/2000/svg">
<path d="M70.3107 45.75H61.8914L59.5514 39.9C57.1468 33.8855 51.4078 30 44.9292 30H27.0698C20.5926 30 14.8523 33.8855 12.4462 39.9L10.1062 45.75H1.6884C0.590114 45.75 -0.215668 46.7822 0.0515199 47.8467L0.895271 51.2217C1.0823 51.9727 1.7573 52.5 2.53215 52.5H5.3545C3.4659 54.1495 2.24949 56.5472 2.24949 59.25V66C2.24949 68.2669 3.11574 70.313 4.49949 71.8964V79.5C4.49949 81.9848 6.51465 84 8.9995 84H13.4995C15.9844 84 17.9995 81.9848 17.9995 79.5V75H53.9996V79.5C53.9996 81.9848 56.0147 84 58.4996 84H62.9996C65.4844 84 67.4996 81.9848 67.4996 79.5V71.8964C68.8833 70.3144 69.7496 68.2683 69.7496 66V59.25C69.7496 56.5472 68.5332 54.1495 66.646 52.5H69.4683C70.2432 52.5 70.9182 51.9727 71.1052 51.2217L71.949 47.8467C72.2147 46.7822 71.409 45.75 70.3107 45.75ZM20.8022 43.2427C21.8273 40.6805 24.3094 39 27.0698 39H44.9292C47.6897 39 50.1717 40.6805 51.1969 43.2427L53.9996 50.25H17.9995L20.8022 43.2427ZM13.4995 65.9719C10.7995 65.9719 8.9995 64.1775 8.9995 61.4859C8.9995 58.7944 10.7995 57 13.4995 57C16.1995 57 20.2495 61.0373 20.2495 63.7289C20.2495 66.4205 16.1995 65.9719 13.4995 65.9719ZM58.4996 65.9719C55.7996 65.9719 51.7496 66.4205 51.7496 63.7289C51.7496 61.0373 55.7996 57 58.4996 57C61.1996 57 62.9996 58.7944 62.9996 61.4859C62.9996 64.1775 61.1996 65.9719 58.4996 65.9719Z" fill="white"/>
<path d="M79 35.5C79 29.3517 76.6884 23.4282 72.5239 18.9051C68.3594 14.382 62.6465 11.5901 56.5192 11.0833L56.253 14.3016C61.5728 14.7415 66.5326 17.1655 70.1482 21.0924C73.7638 25.0193 75.7707 30.1621 75.7707 35.5H79Z" fill="white"/>
<path d="M68 34.5C68 31.3631 66.8206 28.3409 64.6959 26.0332C62.5711 23.7255 59.6564 22.3011 56.5302 22.0425L56.3005 24.8201C58.7297 25.021 60.9945 26.1278 62.6455 27.921C64.2965 29.7142 65.213 32.0625 65.213 34.5H68Z" fill="white"/>
<path d="M89.8111 39.1571C90.3171 34.2716 89.8038 29.3342 88.3036 24.6572C86.8035 19.9803 84.3491 15.6655 81.0957 11.9858C77.8424 8.30612 73.8609 5.34157 69.403 3.27964C64.9451 1.21772 60.1078 0.103293 55.1971 0.00684493L55.1317 3.33709C59.5816 3.42448 63.965 4.43435 68.0047 6.30281C72.0443 8.17127 75.6522 10.8577 78.6003 14.1921C81.5484 17.5265 83.7725 21.4365 85.1319 25.6746C86.4913 29.9127 86.9565 34.3868 86.498 38.8139L89.8111 39.1571Z" fill="white"/>
</svg>
